<svg version="1.1" id="Layer_1" xmlns="http://www.w3.org/2000/svg" xmlns:xlink="http://www.w3.org/1999/xlink" x="0px" y="0px"
	 width="100%" viewBox="120 143 260 160" xml:space="preserve">
<path fill="#000000" opacity="1.000000" stroke="none" 
	d="
M229.926941,249.078430 
	C230.077652,251.924713 228.162460,252.298325 225.997528,252.338745 
	C222.263962,252.408478 221.647919,249.310593 220.335541,246.618896 
	C217.656006,249.401276 218.748367,252.422180 219.541412,255.335709 
	C221.285004,261.741180 221.248154,262.091644 216.624847,267.772400 
	C215.590210,265.987854 214.700500,264.108246 212.755554,263.789490 
	C212.663681,262.100464 214.763062,262.115173 214.311035,260.379089 
	C206.768555,259.537994 199.703018,259.770782 196.319397,268.015930 
	C194.485687,267.556641 194.764328,266.643494 194.820068,265.850952 
	C194.876907,265.042694 195.239685,264.204010 193.983749,263.037964 
	C183.544968,265.690674 172.050995,260.763916 161.214157,266.548828 
	C157.102219,268.743866 152.133118,266.859406 147.532272,265.761902 
	C141.728088,264.377350 135.765915,263.655060 129.915558,261.981476 
	C134.649078,259.992920 139.723694,259.767517 144.208939,261.252075 
	C153.719391,264.399841 162.789368,264.414398 171.881119,260.221558 
	C172.617035,259.882172 173.571716,259.553711 174.300354,259.731049 
	C186.497238,262.699799 198.156067,257.051819 210.199509,257.549683 
	C217.085342,257.834381 217.328918,257.399292 216.101624,250.116684 
	C214.832748,249.307602 213.885986,250.125275 212.978622,250.820908 
	C209.017792,253.857559 205.176514,254.426987 201.501297,250.379852 
	C200.475143,249.249847 199.130981,249.394257 197.790253,249.373779 
	C189.427444,249.246094 187.078598,245.873718 189.812637,237.987808 
	C190.022217,237.383362 190.145523,236.749008 190.367294,235.906876 
	C186.368561,234.106110 180.579117,232.382965 182.942734,227.194305 
	C185.705109,221.130219 183.303818,217.143646 180.768997,212.426514 
	C179.119553,209.357040 179.354416,206.154099 182.514069,202.867111 
	C183.117874,206.089981 182.220917,208.888519 183.570099,211.305161 
	C184.816620,213.537949 185.049713,216.409424 188.040588,218.277588 
	C189.244598,213.575104 187.856689,209.273743 187.084427,205.374100 
	C185.715103,198.459320 189.864395,195.572998 194.239456,192.352798 
	C194.372604,192.254791 194.574371,192.223373 194.668030,192.102127 
	C199.267700,186.146896 205.953949,184.425949 212.819550,182.716629 
	C217.200592,181.625885 219.752563,177.317032 223.870331,174.584457 
	C224.727951,178.690521 218.803497,182.174225 224.238419,186.048965 
	C228.382797,189.003632 232.128769,186.395615 236.608749,186.747421 
	C234.369980,190.279022 230.640549,189.495911 227.925400,191.278519 
	C228.297485,197.095886 229.402405,202.678848 234.811646,206.313950 
	C238.258209,208.630096 240.609558,207.576141 240.923203,203.503159 
	C241.242935,199.351547 241.705902,195.244080 242.355133,191.124130 
	C242.751053,188.611496 242.565048,185.430283 241.317215,183.338867 
	C236.767349,175.713104 233.725281,166.981323 225.775665,161.685562 
	C222.909058,159.775940 220.236282,158.952209 216.913361,159.810913 
	C202.734131,163.475143 188.289658,165.787277 173.821426,167.891296 
	C169.435333,168.529129 166.686966,171.837738 162.787003,173.298904 
	C164.986435,168.441025 168.781815,164.722702 173.938507,164.788239 
	C184.698944,164.924988 194.435898,160.818832 204.670395,158.857498 
	C210.583267,157.724335 216.321411,154.956039 223.858383,157.489334 
	C221.012802,153.071976 218.363617,152.449585 214.934433,152.702255 
	C204.090561,153.501282 193.690872,156.497910 183.128738,158.709045 
	C179.731293,159.420273 176.182907,160.404755 172.820160,160.075089 
	C166.346451,159.440475 161.881439,162.410233 158.104050,166.903931 
	C151.857864,174.334564 144.823135,180.934326 137.410553,187.148193 
	C135.097275,189.087387 132.986008,191.680283 129.438004,191.280457 
	C128.197372,188.765152 129.831085,187.560516 131.262741,186.543243 
	C141.356537,179.370911 149.666153,170.156097 159.151276,162.288574 
	C162.660812,159.377579 166.213226,156.691772 171.006287,156.549850 
	C172.999054,156.490829 174.549225,155.381119 175.902634,154.263153 
	C179.161743,151.571030 183.138504,150.613251 186.710495,151.818359 
	C194.734589,154.525513 202.150482,151.828217 209.646088,150.194016 
	C216.385345,148.724731 221.747589,150.094162 226.170334,155.425919 
	C231.456085,161.798065 237.187073,167.794250 242.322128,175.231857 
	C244.225418,169.065170 248.668854,166.161926 253.080643,163.196106 
	C256.949219,160.595474 260.974426,158.160965 264.530457,155.176498 
	C271.520905,149.309677 279.316620,150.136475 287.268555,151.870071 
	C290.347107,152.541199 293.488464,153.323166 296.320160,154.653046 
	C304.931793,158.697464 314.097626,159.905960 323.412109,160.557800 
	C330.042114,161.021774 335.487885,163.533081 339.737396,168.900131 
	C349.848145,181.669830 360.788147,193.733368 371.774628,205.750336 
	C371.935425,205.926163 371.837555,206.338425 371.915131,207.364273 
	C366.597168,205.583237 362.796906,202.388184 359.764252,198.216690 
	C352.106049,187.682877 343.648071,177.856018 334.429199,168.653061 
	C331.099396,165.329025 327.676727,163.053192 322.663055,163.213791 
	C315.417938,163.445862 308.409180,161.653946 301.755249,158.945572 
	C293.973877,155.778259 285.849182,154.228622 277.667938,152.734131 
	C275.646088,152.364792 273.935181,153.005798 272.495300,154.039215 
	C266.129517,158.608063 259.415985,162.593719 252.648972,166.520584 
	C250.570175,167.726913 248.766586,169.494247 247.496155,171.711136 
	C249.572540,173.177872 250.673691,171.714539 251.796036,170.973099 
	C255.824844,168.311646 260.208801,165.985138 263.654358,162.690918 
	C268.850525,157.722946 274.959534,157.703857 280.951813,158.960281 
	C293.498871,161.591095 305.440186,166.379944 317.557343,170.509369 
	C317.804779,170.593689 317.940430,171.006027 318.515991,171.800735 
	C314.280090,171.979675 310.522247,171.368637 306.952393,170.092194 
	C297.703827,166.785141 288.385468,163.729324 278.930542,161.058960 
	C275.311249,160.036774 271.985199,160.005615 269.022186,162.437592 
	C263.457428,167.005005 257.255432,170.578201 251.116165,174.263733 
	C247.297134,176.556366 245.934540,179.655792 245.376083,184.408295 
	C244.589371,191.103394 245.811584,197.492599 245.538757,204.486145 
	C250.638290,203.251633 252.836853,199.975006 254.790070,195.905548 
	C257.148041,190.992706 253.696808,187.867401 251.695206,184.317001 
	C252.397797,183.972549 252.800659,183.653610 252.915573,183.736053 
	C259.876282,188.729553 262.220337,188.628098 268.132599,181.682907 
	C270.676392,178.694687 272.496948,178.524200 275.602509,180.619888 
	C280.064789,183.631134 285.199860,185.217606 290.554016,185.826370 
	C292.726624,186.073410 294.353882,186.308807 294.543701,189.096130 
	C294.664276,190.866592 296.612640,191.546646 297.936249,192.534103 
	C301.002930,194.822006 304.121613,197.051514 307.062866,199.492996 
	C309.973572,201.909149 311.806274,204.577454 308.812561,208.417374 
	C307.786865,209.733002 306.023560,212.297867 310.439789,212.216675 
	C308.438080,216.280334 305.398071,218.572174 302.382812,220.904907 
	C299.253174,223.326126 295.643738,225.339539 294.787018,229.752777 
	C294.670471,230.353134 294.197968,231.170654 293.690796,231.363831 
	C289.409637,232.994644 288.416534,236.225113 287.791962,240.529556 
	C287.202454,244.592331 281.565643,244.308746 277.115448,239.898300 
	C274.223907,244.476959 270.778687,245.101547 266.000916,242.138992 
	C263.339905,240.488968 260.132507,242.679749 257.918945,244.525436 
	C255.224915,246.771729 253.768585,250.115829 252.414093,253.344009 
	C251.866684,254.648682 252.350586,256.031555 253.420868,256.987091 
	C254.782318,258.202545 256.000061,257.215332 256.940918,256.345551 
	C260.292908,253.246719 263.529907,251.659958 268.587341,253.156204 
	C271.502075,254.018509 275.393707,252.174301 278.678101,251.056290 
	C283.987732,249.248947 289.584015,248.152405 294.174194,244.446274 
	C296.774414,242.346848 299.961884,242.010727 303.077545,243.874374 
	C303.929810,244.384140 304.888092,245.139191 305.773743,245.107666 
	C320.679077,244.577103 334.135529,253.170929 349.256836,251.766693 
	C356.469025,251.096939 365.270477,255.778214 371.427063,262.159790 
	C368.071411,262.522339 365.739502,260.795898 363.449371,259.418091 
	C358.327515,256.336578 353.008209,254.851395 346.910492,254.735550 
	C341.000702,254.623306 334.959534,253.590591 329.265747,251.954208 
	C322.341980,249.964386 315.198120,249.451782 308.262085,247.759445 
	C306.408203,247.307129 304.433197,247.595566 304.249634,249.549133 
	C303.336151,259.271423 294.741547,262.559265 288.956879,268.142792 
	C284.937408,272.022461 280.616425,275.094177 279.689301,281.582306 
	C279.052490,286.038940 276.082214,290.454437 272.147766,293.945679 
	C270.664856,291.591644 271.804047,290.549591 272.363617,289.438202 
	C274.646606,284.903931 277.354828,280.755310 278.327118,275.411316 
	C278.899933,272.263031 282.885254,269.427368 285.847015,267.102264 
	C289.326263,264.370911 292.242615,261.048676 296.365417,258.887695 
	C300.381500,256.782654 301.088989,251.770508 301.520081,247.483673 
	C301.796173,244.738251 299.337708,245.033630 297.521332,245.581467 
	C293.206696,246.882858 292.683929,250.497803 293.080933,254.125610 
	C290.253632,254.777893 290.619507,252.301575 289.106842,251.427521 
	C287.680359,254.939423 289.059723,258.646484 287.989197,262.961792 
	C284.403748,259.693726 286.343689,255.692657 285.132385,252.258011 
	C276.672394,254.532700 267.597260,255.155594 260.834351,262.103943 
	C259.071228,263.915405 256.769745,265.285431 253.916443,265.787415 
	C250.121597,266.455109 248.618454,269.893524 249.956345,274.052216 
	C247.403198,273.654785 244.916519,272.167145 242.663651,274.372986 
	C241.663971,272.008820 243.756317,271.062927 244.103226,269.241058 
	C241.880463,267.002533 239.908417,267.138947 238.216766,269.939209 
	C237.099426,271.788818 236.145508,273.736359 235.057220,275.604431 
	C232.986496,279.158844 230.115799,281.467651 225.755432,281.148529 
	C222.535355,280.912842 220.660233,282.631500 218.723206,284.990021 
	C215.648651,288.733643 212.101089,292.088776 208.740646,295.621857 
	C207.211197,294.019073 208.148178,293.272186 208.654404,292.472137 
	C211.303833,288.284698 215.517715,285.306549 217.375046,280.407227 
	C218.172348,278.304138 221.090225,278.671936 223.267853,278.626251 
	C230.595276,278.472595 234.080124,275.031433 234.585617,267.643555 
	C235.028641,261.168457 233.897232,255.074478 230.141998,248.903076 
	C228.385727,245.068878 227.212799,241.470367 222.253143,242.945267 
	C224.123459,250.591003 224.510483,250.881439 229.926941,249.078430 
M225.555084,192.294174 
	C224.335663,189.038513 221.029144,187.508926 219.259979,184.690811 
	C218.672592,183.755173 217.694000,183.821732 216.588760,184.051163 
	C207.199448,186.000168 199.419647,190.742722 192.959015,197.687317 
	C188.996918,201.946228 189.077072,209.151505 193.042816,214.030960 
	C196.351013,212.226608 199.616653,212.235214 202.642654,214.866821 
	C203.896027,215.956848 205.472839,215.710556 206.955627,215.641998 
	C210.014542,215.500610 212.812759,216.642685 215.730865,217.199936 
	C222.477036,218.488174 229.531509,218.746155 233.828156,225.371078 
	C233.959930,225.574280 234.454712,225.528717 234.771545,225.627167 
	C243.660660,228.389236 247.010010,233.219147 247.587357,242.942993 
	C247.727432,245.302277 246.129745,248.722565 250.045395,250.398941 
	C252.182373,247.294662 251.904312,244.465027 250.489212,241.354660 
	C248.711349,237.446945 248.187622,232.690491 252.219971,230.595734 
	C256.442749,228.402039 259.882629,225.180420 264.094940,223.138748 
	C264.960144,222.719391 266.017670,222.605515 266.999908,222.533463 
	C274.140137,222.009628 281.336090,221.971008 287.877563,218.275299 
	C289.996460,217.078201 292.555084,217.303970 294.446106,219.038712 
	C296.590515,221.005936 298.281738,220.253616 300.125244,218.726456 
	C301.692169,217.428452 306.108368,203.964493 305.389862,202.114899 
	C305.105774,201.383621 304.555267,200.586929 303.901337,200.194031 
	C296.324097,195.641449 290.551544,188.628662 281.443756,185.931870 
	C275.334930,184.123047 270.310516,181.275421 265.603241,187.737595 
	C265.248474,188.224640 264.493042,188.474197 263.875854,188.706711 
	C260.440094,190.001083 258.893433,192.428329 258.097504,196.081268 
	C256.723236,202.388672 251.513626,206.435974 244.907608,207.105392 
	C243.881790,207.209335 243.036270,207.458969 242.115082,207.905151 
	C234.833679,211.431900 230.627838,209.797638 227.669327,202.258179 
	C226.517670,199.323273 225.423752,196.335220 225.555084,192.294174 
M236.126511,228.401642 
	C229.458725,227.467941 224.164841,230.215057 220.718567,236.303131 
	C219.970352,237.624924 219.630997,239.534348 221.167770,239.505234 
	C224.641464,239.439423 228.669220,242.005432 231.579346,237.904343 
	C232.386337,236.767120 232.906418,235.147568 234.760986,235.173203 
	C236.572372,237.058502 233.292252,238.903000 235.098511,241.053635 
	C238.895370,240.174759 240.672791,244.532516 244.123856,245.337799 
	C246.460022,240.398712 242.347961,231.026031 236.126511,228.401642 
M214.700409,239.419495 
	C218.307892,233.635040 223.207520,229.031982 228.529312,224.903198 
	C224.336533,219.641754 222.105652,219.308655 215.418610,222.698685 
	C215.338943,223.964920 218.294693,223.629700 216.954208,225.567032 
	C216.696320,225.664948 216.330383,225.952118 216.104874,225.867050 
	C213.113800,224.738464 210.492233,224.817108 209.589935,228.470490 
	C208.804733,231.649689 204.219055,234.776398 209.621033,238.241196 
	C211.981964,239.755493 212.239777,242.609756 211.345749,245.457581 
	C210.372726,248.556915 208.490677,249.912369 205.068466,249.065536 
	C209.192459,250.773865 210.610046,250.230103 212.040649,246.611801 
	C212.888138,244.468353 212.967453,242.045395 214.700409,239.419495 
M200.101562,221.828262 
	C196.567413,225.400345 195.916870,230.111832 194.168640,235.260208 
	C199.333221,233.735596 201.864883,235.439606 202.358383,240.406281 
	C204.778915,232.397141 206.845749,224.947479 213.388214,219.591110 
	C210.290649,217.766464 207.436951,218.891663 204.435486,218.444977 
	C205.901337,223.107986 202.464890,221.165146 200.101562,221.828262 
M279.200195,234.598969 
	C280.250336,233.148376 281.423340,232.105347 283.290924,233.312683 
	C283.519348,234.832214 280.776306,235.393875 282.674591,237.982498 
	C285.859955,235.192596 284.997803,231.753922 284.477081,228.688538 
	C283.872681,225.130753 281.464294,223.312439 277.755310,223.372940 
	C275.226288,223.414215 273.097229,224.575073 273.611206,227.123703 
	C274.247375,230.278397 275.163696,233.736130 279.200195,234.598969 
M271.618042,228.975540 
	C271.208954,226.757050 270.536133,224.377762 267.789307,224.737045 
	C265.215363,225.073685 262.045715,226.000565 261.248199,228.582001 
	C260.124634,232.218674 263.660828,234.230911 265.959045,237.726410 
	C266.391144,233.272385 272.941895,234.908020 271.618042,228.975540 
M244.919800,253.412537 
	C245.085373,253.395370 245.268204,253.415924 245.411667,253.350372 
	C245.554123,253.285278 245.776627,253.055832 245.760345,253.030792 
	C242.552704,248.093552 237.765289,245.831024 231.172897,243.792618 
	C233.511612,249.044662 235.236511,252.918274 237.331055,257.621979 
	C239.345093,254.670563 241.507858,253.260849 244.919800,253.412537 
M245.881302,266.219513 
	C249.078720,266.553497 250.710770,264.654541 250.608109,261.902618 
	C250.495483,258.883392 247.714432,257.208160 245.261353,256.795898 
	C241.309067,256.131714 240.424515,259.699097 239.107819,262.347748 
	C240.798843,264.558594 243.171036,264.992218 245.881302,266.219513 
M199.412186,216.395798 
	C194.422775,214.149857 193.225159,219.068817 189.142120,221.486343 
	C192.538727,221.311050 194.063507,222.265686 194.706604,224.652374 
	C196.588776,221.726471 198.156647,219.289154 199.412186,216.395798 
M256.244476,231.443283 
	C251.284271,234.548645 250.878723,237.033157 254.771225,242.188599 
	C253.671021,238.846191 255.975510,236.885696 257.148621,234.596512 
	C257.804413,233.316818 258.743225,232.396454 256.244476,231.443283 
M195.717621,244.437271 
	C199.412369,244.469940 199.237061,241.643829 199.447342,239.232101 
	C199.544540,238.117371 198.722839,237.150635 197.598770,237.489471 
	C194.979324,238.279083 194.245880,240.444641 194.337540,242.942200 
	C194.352798,243.357849 194.821320,243.756866 195.717621,244.437271 
M204.740326,242.131073 
	C204.460358,243.482574 203.311783,244.759628 204.341293,246.255859 
	C206.089432,246.823471 207.670135,246.780502 208.491562,244.918472 
	C209.017761,243.725632 209.256561,242.284470 208.362747,241.184402 
	C207.237473,239.799454 206.082916,240.482437 204.740326,242.131073 
M287.440613,224.134949 
	C289.545349,221.703674 291.447815,224.007217 293.587646,224.816208 
	C294.026947,221.690277 292.452454,221.025909 290.233551,221.034714 
	C288.256653,221.042572 286.122437,220.950485 285.553162,223.492722 
	C285.350098,224.399384 285.867432,225.083862 287.440613,224.134949 
M186.870712,154.274246 
	C183.962402,153.325485 181.429565,153.814972 179.118500,156.122589 
	C182.287445,157.183945 184.753189,156.104675 186.870712,154.274246 
z"/>
</svg>
