<svg version="1.1" id="Layer_1" xmlns="http://www.w3.org/2000/svg" xmlns:xlink="http://www.w3.org/1999/xlink" x="0px" y="0px"
	 width="100%" viewBox="0 0 496 496" enable-background="new 0 0 496 496" xml:space="preserve">
<path fill="#000000" opacity="1.000000" stroke="none" 
	d="
M229.926941,249.078430 
	C230.077652,251.924713 228.162460,252.298325 225.997528,252.338745 
	C222.263962,252.408478 221.647919,249.310593 220.335541,246.618896 
	C217.656006,249.401276 218.748367,252.422180 219.541412,255.335709 
	C221.285004,261.741180 221.248154,262.091644 216.624847,267.772400 
	C215.590210,265.987854 214.700500,264.108246 212.755554,263.789490 
	C212.663681,262.100464 214.763062,262.115173 214.311035,260.379089 
	C206.768555,259.537994 199.703018,259.770782 196.319397,268.015930 
	C194.485687,267.556641 194.764328,266.643494 194.820068,265.850952 
	C194.876907,265.042694 195.239685,264.204010 193.983749,263.037964 
	C183.544968,265.690674 172.050995,260.763916 161.214157,266.548828 
	C157.102219,268.743866 152.133118,266.859406 147.532272,265.761902 
	C141.728088,264.377350 135.765915,263.655060 129.915558,261.981476 
	C134.649078,259.992920 139.723694,259.767517 144.208939,261.252075 
	C153.719391,264.399841 162.789368,264.414398 171.881119,260.221558 
	C172.617035,259.882172 173.571716,259.553711 174.300354,259.731049 
	C186.497238,262.699799 198.156067,257.051819 210.199509,257.549683 
	C217.085342,257.834381 217.328918,257.399292 216.101624,250.116684 
	C214.832748,249.307602 213.885986,250.125275 212.978622,250.820908 
	C209.017792,253.857559 205.176514,254.426987 201.501297,250.379852 
	C200.475143,249.249847 199.130981,249.394257 197.790253,249.373779 
	C189.427444,249.246094 187.078598,245.873718 189.812637,237.987808 
	C190.022217,237.383362 190.145523,236.749008 190.367294,235.906876 
	C186.368561,234.106110 180.579117,232.382965 182.942734,227.194305 
	C185.705109,221.130219 183.303818,217.143646 180.768997,212.426514 
	C179.119553,209.357040 179.354416,206.154099 182.514069,202.867111 
	C183.117874,206.089981 182.220917,208.888519 183.570099,211.305161 
	C184.816620,213.537949 185.049713,216.409424 188.040588,218.277588 
	C189.244598,213.575104 187.856689,209.273743 187.084427,205.374100 
	C185.715103,198.459320 189.864395,195.572998 194.239456,192.352798 
	C194.372604,192.254791 194.574371,192.223373 194.668030,192.102127 
	C199.267700,186.146896 205.953949,184.425949 212.819550,182.716629 
	C217.200592,181.625885 219.752563,177.317032 223.870331,174.584457 
	C224.727951,178.690521 218.803497,182.174225 224.238419,186.048965 
	C228.382797,189.003632 232.128769,186.395615 236.608749,186.747421 
	C234.369980,190.279022 230.640549,189.495911 227.925400,191.278519 
	C228.297485,197.095886 229.402405,202.678848 234.811646,206.313950 
	C238.258209,208.630096 240.609558,207.576141 240.923203,203.503159 
	C241.242935,199.351547 241.705902,195.244080 242.355133,191.124130 
	C242.751053,188.611496 242.565048,185.430283 241.317215,183.338867 
	C236.767349,175.713104 233.725281,166.981323 225.775665,161.685562 
	C222.909058,159.775940 220.236282,158.952209 216.913361,159.810913 
	C202.734131,163.475143 188.289658,165.787277 173.821426,167.891296 
	C169.435333,168.529129 166.686966,171.837738 162.787003,173.298904 
	C164.986435,168.441025 168.781815,164.722702 173.938507,164.788239 
	C184.698944,164.924988 194.435898,160.818832 204.670395,158.857498 
	C210.583267,157.724335 216.321411,154.956039 223.858383,157.489334 
	C221.012802,153.071976 218.363617,152.449585 214.934433,152.702255 
	C204.090561,153.501282 193.690872,156.497910 183.128738,158.709045 
	C179.731293,159.420273 176.182907,160.404755 172.820160,160.075089 
	C166.346451,159.440475 161.881439,162.410233 158.104050,166.903931 
	C151.857864,174.334564 144.823135,180.934326 137.410553,187.148193 
	C135.097275,189.087387 132.986008,191.680283 129.438004,191.280457 
	C128.197372,188.765152 129.831085,187.560516 131.262741,186.543243 
	C141.356537,179.370911 149.666153,170.156097 159.151276,162.288574 
	C162.660812,159.377579 166.213226,156.691772 171.006287,156.549850 
	C172.999054,156.490829 174.549225,155.381119 175.902634,154.263153 
	C179.161743,151.571030 183.138504,150.613251 186.710495,151.818359 
	C194.734589,154.525513 202.150482,151.828217 209.646088,150.194016 
	C216.385345,148.724731 221.747589,150.094162 226.170334,155.425919 
	C231.456085,161.798065 237.187073,167.794250 242.322128,175.231857 
	C244.225418,169.065170 248.668854,166.161926 253.080643,163.196106 
	C256.949219,160.595474 260.974426,158.160965 264.530457,155.176498 
	C271.520905,149.309677 279.316620,150.136475 287.268555,151.870071 
	C290.347107,152.541199 293.488464,153.323166 296.320160,154.653046 
	C304.931793,158.697464 314.097626,159.905960 323.412109,160.557800 
	C330.042114,161.021774 335.487885,163.533081 339.737396,168.900131 
	C349.848145,181.669830 360.788147,193.733368 371.774628,205.750336 
	C371.935425,205.926163 371.837555,206.338425 371.915131,207.364273 
	C366.597168,205.583237 362.796906,202.388184 359.764252,198.216690 
	C352.106049,187.682877 343.648071,177.856018 334.429199,168.653061 
	C331.099396,165.329025 327.676727,163.053192 322.663055,163.213791 
	C315.417938,163.445862 308.409180,161.653946 301.755249,158.945572 
	C293.973877,155.778259 285.849182,154.228622 277.667938,152.734131 
	C275.646088,152.364792 273.935181,153.005798 272.495300,154.039215 
	C266.129517,158.608063 259.415985,162.593719 252.648972,166.520584 
	C250.570175,167.726913 248.766586,169.494247 247.496155,171.711136 
	C249.572540,173.177872 250.673691,171.714539 251.796036,170.973099 
	C255.824844,168.311646 260.208801,165.985138 263.654358,162.690918 
	C268.850525,157.722946 274.959534,157.703857 280.951813,158.960281 
	C293.498871,161.591095 305.440186,166.379944 317.557343,170.509369 
	C317.804779,170.593689 317.940430,171.006027 318.515991,171.800735 
	C314.280090,171.979675 310.522247,171.368637 306.952393,170.092194 
	C297.703827,166.785141 288.385468,163.729324 278.930542,161.058960 
	C275.311249,160.036774 271.985199,160.005615 269.022186,162.437592 
	C263.457428,167.005005 257.255432,170.578201 251.116165,174.263733 
	C247.297134,176.556366 245.934540,179.655792 245.376083,184.408295 
	C244.589371,191.103394 245.811584,197.492599 245.538757,204.486145 
	C250.638290,203.251633 252.836853,199.975006 254.790070,195.905548 
	C257.148041,190.992706 253.696808,187.867401 251.695206,184.317001 
	C252.397797,183.972549 252.800659,183.653610 252.915573,183.736053 
	C259.876282,188.729553 262.220337,188.628098 268.132599,181.682907 
	C270.676392,178.694687 272.496948,178.524200 275.602509,180.619888 
	C280.064789,183.631134 285.199860,185.217606 290.554016,185.826370 
	C292.726624,186.073410 294.353882,186.308807 294.543701,189.096130 
	C294.664276,190.866592 296.612640,191.546646 297.936249,192.534103 
	C301.002930,194.822006 304.121613,197.051514 307.062866,199.492996 
	C309.973572,201.909149 311.806274,204.577454 308.812561,208.417374 
	C307.786865,209.733002 306.023560,212.297867 310.439789,212.216675 
	C308.438080,216.280334 305.398071,218.572174 302.382812,220.904907 
	C299.253174,223.326126 295.643738,225.339539 294.787018,229.752777 
	C294.670471,230.353134 294.197968,231.170654 293.690796,231.363831 
	C289.409637,232.994644 288.416534,236.225113 287.791962,240.529556 
	C287.202454,244.592331 281.565643,244.308746 277.115448,239.898300 
	C274.223907,244.476959 270.778687,245.101547 266.000916,242.138992 
	C263.339905,240.488968 260.132507,242.679749 257.918945,244.525436 
	C255.224915,246.771729 253.768585,250.115829 252.414093,253.344009 
	C251.866684,254.648682 252.350586,256.031555 253.420868,256.987091 
	C254.782318,258.202545 256.000061,257.215332 256.940918,256.345551 
	C260.292908,253.246719 263.529907,251.659958 268.587341,253.156204 
	C271.502075,254.018509 275.393707,252.174301 278.678101,251.056290 
	C283.987732,249.248947 289.584015,248.152405 294.174194,244.446274 
	C296.774414,242.346848 299.961884,242.010727 303.077545,243.874374 
	C303.929810,244.384140 304.888092,245.139191 305.773743,245.107666 
	C320.679077,244.577103 334.135529,253.170929 349.256836,251.766693 
	C356.469025,251.096939 365.270477,255.778214 371.427063,262.159790 
	C368.071411,262.522339 365.739502,260.795898 363.449371,259.418091 
	C358.327515,256.336578 353.008209,254.851395 346.910492,254.735550 
	C341.000702,254.623306 334.959534,253.590591 329.265747,251.954208 
	C322.341980,249.964386 315.198120,249.451782 308.262085,247.759445 
	C306.408203,247.307129 304.433197,247.595566 304.249634,249.549133 
	C303.336151,259.271423 294.741547,262.559265 288.956879,268.142792 
	C284.937408,272.022461 280.616425,275.094177 279.689301,281.582306 
	C279.052490,286.038940 276.082214,290.454437 272.147766,293.945679 
	C270.664856,291.591644 271.804047,290.549591 272.363617,289.438202 
	C274.646606,284.903931 277.354828,280.755310 278.327118,275.411316 
	C278.899933,272.263031 282.885254,269.427368 285.847015,267.102264 
	C289.326263,264.370911 292.242615,261.048676 296.365417,258.887695 
	C300.381500,256.782654 301.088989,251.770508 301.520081,247.483673 
	C301.796173,244.738251 299.337708,245.033630 297.521332,245.581467 
	C293.206696,246.882858 292.683929,250.497803 293.080933,254.125610 
	C290.253632,254.777893 290.619507,252.301575 289.106842,251.427521 
	C287.680359,254.939423 289.059723,258.646484 287.989197,262.961792 
	C284.403748,259.693726 286.343689,255.692657 285.132385,252.258011 
	C276.672394,254.532700 267.597260,255.155594 260.834351,262.103943 
	C259.071228,263.915405 256.769745,265.285431 253.916443,265.787415 
	C250.121597,266.455109 248.618454,269.893524 249.956345,274.052216 
	C247.403198,273.654785 244.916519,272.167145 242.663651,274.372986 
	C241.663971,272.008820 243.756317,271.062927 244.103226,269.241058 
	C241.880463,267.002533 239.908417,267.138947 238.216766,269.939209 
	C237.099426,271.788818 236.145508,273.736359 235.057220,275.604431 
	C232.986496,279.158844 230.115799,281.467651 225.755432,281.148529 
	C222.535355,280.912842 220.660233,282.631500 218.723206,284.990021 
	C215.648651,288.733643 212.101089,292.088776 208.740646,295.621857 
	C207.211197,294.019073 208.148178,293.272186 208.654404,292.472137 
	C211.303833,288.284698 215.517715,285.306549 217.375046,280.407227 
	C218.172348,278.304138 221.090225,278.671936 223.267853,278.626251 
	C230.595276,278.472595 234.080124,275.031433 234.585617,267.643555 
	C235.028641,261.168457 233.897232,255.074478 230.141998,248.903076 
	C228.385727,245.068878 227.212799,241.470367 222.253143,242.945267 
	C224.123459,250.591003 224.510483,250.881439 229.926941,249.078430 
M225.555084,192.294174 
	C224.335663,189.038513 221.029144,187.508926 219.259979,184.690811 
	C218.672592,183.755173 217.694000,183.821732 216.588760,184.051163 
	C207.199448,186.000168 199.419647,190.742722 192.959015,197.687317 
	C188.996918,201.946228 189.077072,209.151505 193.042816,214.030960 
	C196.351013,212.226608 199.616653,212.235214 202.642654,214.866821 
	C203.896027,215.956848 205.472839,215.710556 206.955627,215.641998 
	C210.014542,215.500610 212.812759,216.642685 215.730865,217.199936 
	C222.477036,218.488174 229.531509,218.746155 233.828156,225.371078 
	C233.959930,225.574280 234.454712,225.528717 234.771545,225.627167 
	C243.660660,228.389236 247.010010,233.219147 247.587357,242.942993 
	C247.727432,245.302277 246.129745,248.722565 250.045395,250.398941 
	C252.182373,247.294662 251.904312,244.465027 250.489212,241.354660 
	C248.711349,237.446945 248.187622,232.690491 252.219971,230.595734 
	C256.442749,228.402039 259.882629,225.180420 264.094940,223.138748 
	C264.960144,222.719391 266.017670,222.605515 266.999908,222.533463 
	C274.140137,222.009628 281.336090,221.971008 287.877563,218.275299 
	C289.996460,217.078201 292.555084,217.303970 294.446106,219.038712 
	C296.590515,221.005936 298.281738,220.253616 300.125244,218.726456 
	C301.692169,217.428452 306.108368,203.964493 305.389862,202.114899 
	C305.105774,201.383621 304.555267,200.586929 303.901337,200.194031 
	C296.324097,195.641449 290.551544,188.628662 281.443756,185.931870 
	C275.334930,184.123047 270.310516,181.275421 265.603241,187.737595 
	C265.248474,188.224640 264.493042,188.474197 263.875854,188.706711 
	C260.440094,190.001083 258.893433,192.428329 258.097504,196.081268 
	C256.723236,202.388672 251.513626,206.435974 244.907608,207.105392 
	C243.881790,207.209335 243.036270,207.458969 242.115082,207.905151 
	C234.833679,211.431900 230.627838,209.797638 227.669327,202.258179 
	C226.517670,199.323273 225.423752,196.335220 225.555084,192.294174 
M236.126511,228.401642 
	C229.458725,227.467941 224.164841,230.215057 220.718567,236.303131 
	C219.970352,237.624924 219.630997,239.534348 221.167770,239.505234 
	C224.641464,239.439423 228.669220,242.005432 231.579346,237.904343 
	C232.386337,236.767120 232.906418,235.147568 234.760986,235.173203 
	C236.572372,237.058502 233.292252,238.903000 235.098511,241.053635 
	C238.895370,240.174759 240.672791,244.532516 244.123856,245.337799 
	C246.460022,240.398712 242.347961,231.026031 236.126511,228.401642 
M214.700409,239.419495 
	C218.307892,233.635040 223.207520,229.031982 228.529312,224.903198 
	C224.336533,219.641754 222.105652,219.308655 215.418610,222.698685 
	C215.338943,223.964920 218.294693,223.629700 216.954208,225.567032 
	C216.696320,225.664948 216.330383,225.952118 216.104874,225.867050 
	C213.113800,224.738464 210.492233,224.817108 209.589935,228.470490 
	C208.804733,231.649689 204.219055,234.776398 209.621033,238.241196 
	C211.981964,239.755493 212.239777,242.609756 211.345749,245.457581 
	C210.372726,248.556915 208.490677,249.912369 205.068466,249.065536 
	C209.192459,250.773865 210.610046,250.230103 212.040649,246.611801 
	C212.888138,244.468353 212.967453,242.045395 214.700409,239.419495 
M200.101562,221.828262 
	C196.567413,225.400345 195.916870,230.111832 194.168640,235.260208 
	C199.333221,233.735596 201.864883,235.439606 202.358383,240.406281 
	C204.778915,232.397141 206.845749,224.947479 213.388214,219.591110 
	C210.290649,217.766464 207.436951,218.891663 204.435486,218.444977 
	C205.901337,223.107986 202.464890,221.165146 200.101562,221.828262 
M279.200195,234.598969 
	C280.250336,233.148376 281.423340,232.105347 283.290924,233.312683 
	C283.519348,234.832214 280.776306,235.393875 282.674591,237.982498 
	C285.859955,235.192596 284.997803,231.753922 284.477081,228.688538 
	C283.872681,225.130753 281.464294,223.312439 277.755310,223.372940 
	C275.226288,223.414215 273.097229,224.575073 273.611206,227.123703 
	C274.247375,230.278397 275.163696,233.736130 279.200195,234.598969 
M271.618042,228.975540 
	C271.208954,226.757050 270.536133,224.377762 267.789307,224.737045 
	C265.215363,225.073685 262.045715,226.000565 261.248199,228.582001 
	C260.124634,232.218674 263.660828,234.230911 265.959045,237.726410 
	C266.391144,233.272385 272.941895,234.908020 271.618042,228.975540 
M244.919800,253.412537 
	C245.085373,253.395370 245.268204,253.415924 245.411667,253.350372 
	C245.554123,253.285278 245.776627,253.055832 245.760345,253.030792 
	C242.552704,248.093552 237.765289,245.831024 231.172897,243.792618 
	C233.511612,249.044662 235.236511,252.918274 237.331055,257.621979 
	C239.345093,254.670563 241.507858,253.260849 244.919800,253.412537 
M245.881302,266.219513 
	C249.078720,266.553497 250.710770,264.654541 250.608109,261.902618 
	C250.495483,258.883392 247.714432,257.208160 245.261353,256.795898 
	C241.309067,256.131714 240.424515,259.699097 239.107819,262.347748 
	C240.798843,264.558594 243.171036,264.992218 245.881302,266.219513 
M199.412186,216.395798 
	C194.422775,214.149857 193.225159,219.068817 189.142120,221.486343 
	C192.538727,221.311050 194.063507,222.265686 194.706604,224.652374 
	C196.588776,221.726471 198.156647,219.289154 199.412186,216.395798 
M256.244476,231.443283 
	C251.284271,234.548645 250.878723,237.033157 254.771225,242.188599 
	C253.671021,238.846191 255.975510,236.885696 257.148621,234.596512 
	C257.804413,233.316818 258.743225,232.396454 256.244476,231.443283 
M195.717621,244.437271 
	C199.412369,244.469940 199.237061,241.643829 199.447342,239.232101 
	C199.544540,238.117371 198.722839,237.150635 197.598770,237.489471 
	C194.979324,238.279083 194.245880,240.444641 194.337540,242.942200 
	C194.352798,243.357849 194.821320,243.756866 195.717621,244.437271 
M204.740326,242.131073 
	C204.460358,243.482574 203.311783,244.759628 204.341293,246.255859 
	C206.089432,246.823471 207.670135,246.780502 208.491562,244.918472 
	C209.017761,243.725632 209.256561,242.284470 208.362747,241.184402 
	C207.237473,239.799454 206.082916,240.482437 204.740326,242.131073 
M287.440613,224.134949 
	C289.545349,221.703674 291.447815,224.007217 293.587646,224.816208 
	C294.026947,221.690277 292.452454,221.025909 290.233551,221.034714 
	C288.256653,221.042572 286.122437,220.950485 285.553162,223.492722 
	C285.350098,224.399384 285.867432,225.083862 287.440613,224.134949 
M186.870712,154.274246 
	C183.962402,153.325485 181.429565,153.814972 179.118500,156.122589 
	C182.287445,157.183945 184.753189,156.104675 186.870712,154.274246 
z"/>
<path fill="#000000" opacity="1.000000" stroke="none" 
	d="
M242.730499,106.031639 
	C238.287613,107.529655 234.605850,107.145393 231.664230,103.041443 
	C231.081711,105.023460 232.491608,107.475243 229.306534,107.429314 
	C226.378204,107.387100 226.516190,105.688103 226.301651,103.474579 
	C226.061371,100.995628 226.702652,97.220375 222.203537,97.638092 
	C220.121613,97.831383 218.965942,99.222839 219.085297,101.425995 
	C219.200714,103.556541 219.352585,105.685112 219.485779,107.772743 
	C216.295563,110.165359 214.683990,108.415245 213.428986,105.216072 
	C212.340851,106.421700 211.574997,107.533852 210.566757,108.344559 
	C204.012833,113.614349 199.641479,112.124458 198.108810,104.183281 
	C197.417358,100.600647 196.659805,97.030777 195.802017,92.815163 
	C199.409714,91.405090 203.175934,89.819061 207.327774,91.512642 
	C210.409927,92.769890 209.379776,95.592232 209.003830,97.827515 
	C210.463135,98.835213 211.681000,99.676193 213.463638,100.907173 
	C211.897400,95.459923 214.540451,94.123970 219.047836,93.865997 
	C221.048050,93.751518 223.939133,93.832230 224.537323,90.612984 
	C224.813843,89.124825 225.887604,88.304092 227.447281,88.499992 
	C229.064117,88.703072 229.420761,90.003113 229.773605,91.353554 
	C230.175995,92.893692 229.537399,94.733765 231.290543,96.232597 
	C233.679855,94.078781 236.069626,91.900169 239.489807,91.313080 
	C241.534943,90.962021 240.958008,89.033562 240.783630,87.581329 
	C240.451828,84.818199 241.914581,84.072960 244.901947,84.293640 
	C245.438065,90.424362 245.976868,96.585533 246.539703,103.021637 
	C248.584961,101.903275 248.451233,100.656868 247.764221,99.419006 
	C245.854080,95.977417 247.951599,93.908745 250.500519,92.515923 
	C252.928268,91.189293 255.688293,90.360825 258.395508,89.689316 
	C260.682556,89.122025 261.992767,90.135666 261.220184,92.720955 
	C260.896576,93.803848 260.482788,94.859795 259.729553,97.018097 
	C264.615936,92.580704 269.035522,90.708595 274.091705,94.587502 
	C275.655640,95.787270 276.864227,94.221024 278.233307,93.869125 
	C282.723511,92.715019 285.207855,94.040443 285.543823,97.799805 
	C283.300964,98.677299 282.257660,94.704437 279.564026,96.553856 
	C281.053436,100.020042 289.544342,101.429985 283.814636,107.038185 
	C280.620453,110.164619 276.680969,108.284676 273.505157,105.065048 
	C269.847015,107.742416 265.990997,108.156502 261.818146,104.853897 
	C260.909973,108.364716 259.230804,110.821053 256.170532,112.291260 
	C250.639694,114.948372 248.284790,114.227066 245.909500,108.574715 
	C245.320831,107.173889 244.450089,106.427971 242.730499,106.031639 
M277.168915,101.234177 
	C274.933228,97.999451 271.618835,98.136635 268.281830,98.434998 
	C267.089142,98.541641 265.889038,98.930618 265.766174,100.347366 
	C265.677002,101.376053 266.276031,102.668587 267.204895,102.713936 
	C272.235779,102.959511 277.247803,103.109016 281.997192,107.479485 
	C281.831390,103.149071 279.525299,102.631393 277.168915,101.234177 
M237.198822,102.221046 
	C238.359589,103.417023 239.866364,104.292931 240.905563,102.526878 
	C242.227325,100.280624 242.017380,97.720451 240.597900,95.469803 
	C239.916809,94.389893 238.718475,94.024193 237.543243,94.716377 
	C235.750061,95.772530 235.134033,97.391045 235.783707,99.392189 
	C236.037704,100.174461 236.448120,100.905960 237.198822,102.221046 
M206.387970,101.007591 
	C204.784698,100.393806 203.009628,99.826797 202.451508,102.125336 
	C201.982956,104.055084 202.428299,106.058838 203.715759,107.674011 
	C204.602737,108.786789 205.785995,108.562943 206.750641,107.760750 
	C208.263870,106.502357 208.846481,104.868881 208.081375,102.967323 
	C207.847794,102.386742 207.339935,101.916512 206.387970,101.007591 
M250.716583,108.326637 
	C253.452606,111.393196 254.176971,111.357353 257.155396,107.672691 
	C254.956177,107.152496 253.028244,106.514175 250.716583,108.326637 
M253.092606,99.143684 
	C255.888290,99.748764 255.692535,97.973755 255.260071,96.259331 
	C254.970932,95.113029 254.144989,93.904221 252.815872,94.575378 
	C250.615463,95.686516 251.905655,97.291039 253.092606,99.143684 
z"/>
<path fill="#000000" opacity="1.000000" stroke="none" 
	d="
M114.010704,326.988525 
	C114.222221,326.193451 114.514854,325.409973 114.630196,324.601196 
	C114.989418,322.082275 113.282516,318.562408 116.144684,317.283875 
	C119.917969,315.598328 124.353271,316.176666 128.352936,316.857910 
	C130.576859,317.236664 129.707367,320.225098 129.853668,322.143860 
	C129.979874,323.799042 128.873108,326.398193 131.740234,326.344299 
	C133.939743,326.302948 133.836487,323.887085 133.541183,322.349243 
	C132.659393,317.757324 133.829758,315.984985 138.918259,316.766144 
	C141.878738,317.220673 145.079056,316.166473 148.250137,317.171051 
	C147.765488,320.926941 144.331772,323.299042 144.690323,327.622650 
	C148.663574,325.001892 151.670944,321.928589 155.607590,320.557556 
	C154.552032,317.805237 152.351761,320.321838 151.526215,318.550659 
	C157.059311,314.383026 160.266022,316.441925 161.404037,324.962860 
	C163.335083,322.438812 159.696472,317.361816 164.540482,316.768860 
	C168.195084,316.321533 172.737244,315.133423 175.451401,320.057953 
	C177.789352,317.743073 180.549591,316.929382 183.417862,316.135925 
	C186.312729,315.335114 182.379425,309.460480 187.839645,309.848022 
	C189.357681,312.865295 187.364166,316.432343 189.058670,319.436340 
	C191.306152,320.384369 191.630417,316.726318 194.104034,317.734375 
	C194.853546,319.815765 192.484360,322.287628 194.278030,324.564453 
	C195.284912,325.842529 195.810257,327.889496 197.960175,326.982117 
	C199.798157,326.206451 200.015778,324.338165 199.406372,322.685059 
	C198.732559,320.857300 197.651062,319.179810 196.625763,317.202881 
	C199.883942,316.256287 201.997726,317.777710 203.117630,320.323395 
	C204.382874,323.199524 203.536102,326.111664 200.987152,327.906952 
	C196.734863,330.901764 192.823608,329.471802 189.369202,326.054077 
	C187.822433,330.602722 181.318680,330.803009 175.815964,326.570801 
	C174.907486,327.603058 175.110977,329.905640 172.681732,329.321198 
	C170.241730,328.734161 170.911987,326.898315 170.798874,325.343475 
	C170.646927,323.255066 171.374344,320.972015 169.278046,319.096283 
	C164.509964,321.015991 167.139969,325.428406 166.103424,328.664917 
	C161.994873,331.352356 157.343277,329.288147 153.180862,329.171234 
	C146.407394,328.981079 139.691788,330.098206 132.893494,329.380432 
	C126.084366,328.661530 125.974739,329.022308 125.631920,322.368011 
	C125.598663,321.722534 125.440010,321.083466 125.349747,320.506439 
	C119.051758,319.085449 118.038246,320.316956 118.691902,328.475006 
	C116.990608,329.639893 115.439743,329.896362 114.109421,327.372589 
	C113.999474,327.001221 114.010704,326.988525 114.010704,326.988525 
M182.379120,318.731842 
	C178.836594,319.361969 178.903488,321.704285 179.939499,324.254547 
	C180.532089,325.713318 181.891495,326.924286 183.448135,325.814819 
	C185.608963,324.274719 184.774567,322.029175 184.012894,320.010406 
	C183.855957,319.594482 183.350159,319.310181 182.379120,318.731842 
M138.029907,325.310455 
	C138.068268,325.469604 138.085571,325.638153 138.150925,325.785309 
	C138.215866,325.931458 138.391373,326.182678 138.412399,326.172302 
	C141.063248,324.868591 141.374374,322.328644 142.144135,319.619629 
	C140.493988,319.885132 139.261902,320.083344 137.951004,320.294250 
	C137.951004,321.850006 137.951004,323.299072 138.029907,325.310455 
z"/>
<path fill="#000000" opacity="1.000000" stroke="none" 
	d="
M179.971619,114.961967 
	C180.171310,117.229752 178.621460,117.875542 176.870056,117.986176 
	C175.039154,118.101830 175.048508,116.416664 174.639832,115.201721 
	C174.163025,113.784264 173.756500,112.330864 173.135101,110.977730 
	C172.479507,109.550163 172.010315,107.390190 169.750916,108.316246 
	C167.905243,109.072739 167.879807,111.021591 168.356979,112.667236 
	C169.041245,115.027107 170.011429,117.304077 171.057892,120.157227 
	C167.106430,121.221947 164.188980,125.404495 159.058548,122.767303 
	C158.209412,126.149551 155.520203,127.516747 152.152710,127.903145 
	C150.114746,128.136993 148.309067,128.659714 147.018661,130.492859 
	C146.017929,131.914505 144.283539,132.880005 142.723862,132.722595 
	C138.734894,132.320053 136.817902,134.160172 134.699463,137.380447 
	C132.738602,140.361206 128.765076,140.243286 125.574471,138.738815 
	C122.863213,137.460358 121.052528,134.875580 121.644096,131.834000 
	C122.337479,128.268982 124.395462,125.079750 128.427063,124.836418 
	C131.862167,124.629089 133.700073,123.025520 136.180069,120.761162 
	C140.403732,116.904778 146.792114,116.232628 151.584991,112.761192 
	C152.544968,112.065895 154.162735,112.897118 155.513931,114.126587 
	C154.448700,117.411339 151.377350,114.920120 149.311066,117.003304 
	C152.595200,117.526054 155.498291,117.988152 158.561707,118.475769 
	C158.148987,116.447456 157.017197,115.255234 155.982849,114.004623 
	C155.981491,113.012886 156.101730,112.002380 155.952209,111.033508 
	C155.681564,109.279747 153.351089,107.283470 156.259079,105.929070 
	C159.109558,104.601456 158.882980,108.263474 160.650757,109.070969 
	C163.321045,107.969063 166.068329,106.917252 168.746597,105.712082 
	C173.426346,103.606293 175.556580,104.493576 177.476257,109.445251 
	C178.134796,111.143875 178.870987,112.812401 179.784912,114.745270 
	C179.998123,114.995857 179.971619,114.961967 179.971619,114.961967 
M131.618515,129.915375 
	C129.545288,128.402954 127.224304,125.791138 125.080750,129.221481 
	C123.514481,131.727997 126.394173,133.258911 127.887939,134.810898 
	C129.168365,136.141220 130.919846,137.171204 132.667923,135.590057 
	C134.704834,133.747696 133.320923,132.045670 131.618515,129.915375 
M140.181854,120.625488 
	C137.796860,122.158012 138.214050,123.213730 140.839844,123.242355 
	C142.792007,123.263634 144.751053,122.652374 147.226776,122.235283 
	C145.005127,120.019188 142.652237,121.303825 140.181854,120.625488 
M143.531174,130.308716 
	C145.805252,128.719849 145.331863,127.635284 142.808777,127.473801 
	C140.959061,127.355415 139.073975,127.789436 135.899155,128.108429 
	C139.043243,129.169250 140.985825,129.824677 143.531174,130.308716 
M150.623337,124.489128 
	C152.645721,125.701820 154.378128,125.908241 155.705460,123.003090 
	C153.390091,122.229652 151.509033,121.227959 150.623337,124.489128 
z"/>
<path fill="#000000" opacity="1.000000" stroke="none" 
	d="
M384.031250,143.969818 
	C383.377258,144.677078 383.077545,145.883728 381.892090,145.874649 
	C378.423340,145.848145 372.869507,140.492416 372.278992,136.362381 
	C367.888123,138.277191 364.235443,137.220612 361.627411,133.262573 
	C360.400757,131.401001 358.638397,131.442978 356.792389,131.370422 
	C353.538300,131.242462 351.422729,129.519409 350.805817,126.374176 
	C350.190887,123.239105 350.768463,120.278481 353.839417,118.570282 
	C356.750946,116.950768 360.044098,116.108780 362.613861,118.807602 
	C364.936096,121.246460 366.861603,123.100685 370.740601,122.996902 
	C373.462830,122.924065 376.177551,125.017342 375.649780,128.954361 
	C372.708008,129.100830 372.972961,125.086960 369.811798,125.815636 
	C370.345978,128.629547 372.755615,130.326797 373.885986,133.088699 
	C376.353394,131.648193 376.708649,126.664558 380.934235,129.255859 
	C381.885406,131.071564 380.181915,132.196686 379.660248,133.677032 
	C378.825256,136.046432 374.612640,138.601257 378.142487,140.784363 
	C381.204468,142.678116 382.001923,138.215714 383.460297,136.323868 
	C384.833679,134.542236 385.722046,132.435486 388.714569,134.353745 
	C388.718323,138.037781 385.597656,140.306076 384.109619,143.689545 
	C384.001251,143.999359 384.031250,143.969818 384.031250,143.969818 
M362.150696,129.115265 
	C363.939941,129.530548 364.107605,131.077606 364.676880,132.465393 
	C365.311737,134.012955 366.271729,135.549454 368.727570,133.665726 
	C366.126587,130.409195 365.279755,126.036720 360.955688,123.996277 
	C359.347290,123.237312 358.150787,121.538872 356.108734,122.476036 
	C354.917755,123.022614 354.365051,124.153114 354.857300,125.380157 
	C355.656250,127.371880 357.212189,128.549683 359.399567,128.771652 
	C360.060730,128.838776 360.726990,128.856033 362.150696,129.115265 
z"/>
<path fill="#000000" opacity="1.000000" stroke="none" 
	d="
M210.213440,328.285461 
	C210.040131,322.746338 210.040131,317.606079 210.040131,312.099823 
	C214.790176,311.184235 218.395111,312.609650 223.018173,314.983337 
	C228.917618,318.012299 225.390457,323.355743 228.260635,326.617218 
	C231.690216,325.525391 230.837555,322.937164 230.806625,320.787598 
	C230.782532,319.113312 230.299255,317.247498 232.563141,316.741058 
	C235.515533,316.080597 234.868286,318.822601 235.827728,320.686829 
	C238.109177,317.558838 241.020493,315.963287 244.784821,316.826416 
	C246.486252,317.216553 247.884995,318.042358 247.775497,320.217316 
	C245.699036,322.525452 242.531036,320.240021 240.350006,321.967834 
	C241.043365,326.044250 241.278763,326.167145 247.296997,325.596802 
	C245.130936,330.821625 240.763046,330.852112 235.538803,325.580688 
	C235.045853,327.308167 235.725616,329.482513 232.393112,329.346069 
	C224.260818,329.013031 224.250900,329.255188 221.945740,320.937012 
	C218.844315,322.912842 214.011856,322.253357 214.022736,328.089111 
	C214.026138,329.915680 211.784256,329.332703 210.213440,328.285461 
M217.799820,318.148651 
	C217.770233,316.488770 217.875610,314.743042 215.268097,314.476837 
	C213.893600,316.514954 214.301788,318.677795 214.568344,320.818024 
	C216.622543,321.308563 217.141754,320.061707 217.799820,318.148651 
z"/>
<path fill="#000000" opacity="1.000000" stroke="none" 
	d="
M318.026947,99.973999 
	C315.909851,103.621346 314.926147,107.658440 314.216064,111.742241 
	C313.848877,113.854179 312.965363,114.756454 310.895935,114.127022 
	C308.958649,113.537758 308.936340,112.215149 309.666870,110.591042 
	C310.699097,108.296150 311.139618,105.874123 310.914337,102.065689 
	C309.391937,104.475403 308.427521,106.019279 307.445282,107.551765 
	C306.411530,109.164665 305.998688,111.322746 303.729584,111.911377 
	C300.760803,110.665520 302.350555,107.292480 300.552979,105.409332 
	C297.629944,105.454208 297.985046,109.559242 294.547241,109.912727 
	C292.531403,105.717583 292.678070,101.062714 292.608673,96.445251 
	C297.731995,93.966698 296.818481,99.127617 298.511139,100.799454 
	C303.840149,96.147095 304.477844,96.355011 306.695435,103.748985 
	C308.297974,101.092407 309.476624,98.597565 312.195160,97.002663 
	C315.664490,94.967331 317.370911,95.152122 317.958862,99.661499 
	C318.000214,99.999710 318.026947,99.973999 318.026947,99.973999 
z"/>
<path fill="#000000" opacity="1.000000" stroke="none" 
	d="
M317.986816,100.012558 
	C319.761902,99.840691 321.550354,99.655983 323.477509,99.456955 
	C325.863892,104.742554 319.487915,108.242043 321.113068,113.378105 
	C323.676636,114.604454 324.942902,113.127441 325.775085,110.856697 
	C327.034271,107.420578 328.231934,103.961937 329.481476,100.522232 
	C330.366547,98.085930 330.385529,98.092827 333.718658,98.517174 
	C334.740326,100.930664 332.596680,102.925995 332.785248,105.229263 
	C340.797363,110.293030 340.797363,110.293030 336.517365,121.812309 
	C334.880341,122.311302 333.666382,121.678596 332.579987,120.252090 
	C333.493256,117.822006 334.482971,115.365570 335.332489,112.861588 
	C335.839661,111.366692 335.932373,109.749390 334.110352,109.062935 
	C332.422272,108.426933 331.084778,109.393539 330.447968,110.840904 
	C329.324371,113.394653 328.473694,116.068512 327.448547,118.855774 
	C323.888214,118.673271 321.062714,116.357384 317.658508,115.714493 
	C315.574188,115.320862 316.344177,112.680824 316.683655,110.893173 
	C317.322235,107.530327 319.242981,104.328842 317.992645,100.349464 
	C318.026947,99.973999 318.000214,99.999710 317.986816,100.012558 
z"/>
<path fill="#000000" opacity="1.000000" stroke="none" 
	d="
M180.012070,115.012131 
	C179.936142,113.591461 180.989090,112.132187 179.840347,110.708496 
	C176.215424,106.215958 178.883804,103.253372 182.609802,101.068619 
	C184.705383,99.839874 186.347610,96.992638 189.593658,98.107338 
	C190.338104,100.097717 188.795746,102.031708 189.888077,103.970245 
	C190.979858,105.907791 189.385529,107.807159 189.174927,110.234093 
	C192.157867,110.950882 195.478546,111.952034 193.988174,116.231461 
	C192.531418,120.414383 189.129593,122.724602 185.020996,123.145813 
	C182.402771,123.414238 180.287598,121.560844 180.816971,118.309845 
	C180.995575,117.213036 181.895798,116.113953 180.226151,115.089615 
	C179.971619,114.961967 179.998123,114.995857 180.012070,115.012131 
M184.771683,117.493301 
	C187.667267,120.294777 188.931763,119.959648 191.011826,115.641441 
	C188.755554,115.154999 186.776245,115.355965 184.771683,117.493301 
M182.639389,104.431328 
	C182.083893,107.097183 182.979721,108.678040 186.077774,109.046814 
	C186.722687,106.135750 186.630325,104.059601 182.639389,104.431328 
z"/>
<path fill="#000000" opacity="1.000000" stroke="none" 
	d="
M315.901978,312.557251 
	C316.916107,313.645142 317.224976,314.522278 316.513397,315.512817 
	C315.152161,316.308502 314.365631,315.145905 313.451385,314.567535 
	C310.366821,312.616150 307.693726,313.273254 305.504211,315.940552 
	C303.461182,318.429352 304.234314,323.505432 306.984375,325.982361 
	C309.761963,328.484100 312.402191,327.830017 314.929382,325.438538 
	C316.265564,324.174103 317.481140,322.931488 318.129639,321.097595 
	C318.666077,319.580566 319.562714,318.050873 322.073914,318.175171 
	C321.452087,320.635559 321.333435,323.041962 322.826874,325.210999 
	C323.614532,326.355011 324.414062,327.514008 325.994293,327.046967 
	C327.817017,326.508331 327.832825,324.953186 327.773865,323.380524 
	C327.686829,321.059540 325.937744,319.545044 324.651520,316.877380 
	C328.428345,316.455261 330.801605,317.928040 331.698181,320.937408 
	C332.716797,324.356323 331.069855,327.116882 327.931732,328.772736 
	C327.098328,329.212555 325.731354,329.615448 325.061432,329.236389 
	C319.852112,326.288696 314.769104,329.391724 309.644684,329.340302 
	C303.973236,329.283356 300.603424,326.475128 300.369324,321.720520 
	C300.097534,316.199951 303.705444,312.027985 309.203369,311.700836 
	C311.334045,311.574066 313.541229,311.239746 315.901978,312.557251 
z"/>
<path fill="#000000" opacity="1.000000" stroke="none" 
	d="
M284.061676,326.027924 
	C281.297119,329.102203 278.142639,331.170807 274.138580,328.421509 
	C271.050568,326.301270 270.981598,323.161926 272.507446,320.011444 
	C274.463684,315.972321 277.960083,316.104218 281.418579,317.322998 
	C283.253174,317.969574 284.377899,319.068512 286.602783,317.433899 
	C288.539520,316.010986 291.695099,315.524567 293.890015,317.789612 
	C295.230957,319.173401 294.461456,327.694122 292.978180,328.310425 
	C289.851440,329.609558 286.582550,330.516174 284.438782,326.196289 
	C286.774780,324.314972 288.438507,329.696381 291.214386,325.878296 
	C286.167450,323.413086 281.766968,319.365051 275.313354,322.347137 
	C276.389801,325.278107 277.677185,327.208527 280.892822,325.665497 
	C282.099762,325.086273 283.101257,325.057648 284.061676,326.027924 
z"/>
<path fill="#000000" opacity="1.000000" stroke="none" 
	d="
M356.656586,324.365356 
	C353.251740,332.165771 353.251740,332.165771 341.993439,328.811218 
	C341.044739,326.934662 341.900391,324.922058 341.689575,322.974487 
	C341.528320,321.484528 341.625610,319.652161 339.637421,319.559448 
	C337.690460,319.468628 337.377808,321.165894 337.304352,322.731903 
	C337.242188,324.057648 337.226624,325.388000 337.254181,326.714966 
	C337.286285,328.261200 336.846924,329.311523 335.040070,329.242371 
	C333.221344,329.172760 332.967529,328.017456 332.989014,326.531189 
	C333.015442,324.706940 332.996918,322.876526 332.875702,321.056915 
	C332.687836,318.236603 333.622162,316.439514 336.757965,316.759460 
	C339.917755,317.081848 344.184021,314.982666 345.245087,320.253510 
	C345.568634,321.860809 345.312592,323.578247 345.560425,325.209015 
	C345.859680,327.177948 346.833221,328.630310 349.161224,328.526947 
	C351.241119,328.434601 352.157928,327.068787 352.282043,325.290283 
	C352.524261,321.819916 352.594421,318.333710 352.618469,314.853210 
	C352.636536,312.236084 353.544617,311.073303 356.752106,312.371033 
	C356.752106,316.120422 356.752106,320.048676 356.656586,324.365356 
z"/>
<path fill="#000000" opacity="1.000000" stroke="none" 
	d="
M376.259308,320.560577 
	C378.815735,322.119568 382.548889,322.916626 380.598572,326.744568 
	C378.801544,330.271667 375.220856,329.961487 372.328125,328.446136 
	C370.510742,327.494141 369.428955,327.714966 367.878937,328.520752 
	C364.940979,330.048157 362.056061,329.948303 359.657562,327.425140 
	C357.732880,325.400421 357.419373,323.074341 358.795135,320.547882 
	C360.431580,317.542572 363.218109,315.865051 366.237274,316.848480 
	C369.616425,317.949158 372.603821,317.493195 375.827637,316.888824 
	C377.285126,316.615601 379.250732,316.141846 379.743347,318.614319 
	C376.304382,318.444244 376.304382,318.444244 376.259308,320.560577 
M368.161713,321.350952 
	C366.295380,321.627441 364.140717,320.532104 362.378113,322.746490 
	C363.253937,325.081116 364.672638,326.898163 367.460052,325.751373 
	C370.156403,324.642120 372.204590,325.163788 374.349365,326.841553 
	C375.287445,327.575378 376.517700,327.820526 377.379395,325.989380 
	C374.689423,324.258331 372.244720,322.105865 368.161713,321.350952 
z"/>
<path fill="#000000" opacity="1.000000" stroke="none" 
	d="
M97.266708,138.306580 
	C99.256538,137.048218 100.896210,135.851120 102.723442,135.127945 
	C104.730202,134.333725 106.319626,134.932068 106.627632,137.744766 
	C102.009697,138.091446 97.346832,138.785629 96.983917,144.671677 
	C96.788719,147.837585 101.423828,152.221970 104.963570,152.616135 
	C110.118019,153.190109 111.922768,149.804214 112.800690,145.472977 
	C115.562111,147.868378 115.645767,148.356354 113.850647,150.867416 
	C110.218246,155.948532 102.889664,157.821045 98.514297,154.785980 
	C93.126991,151.048965 92.612144,145.540756 97.266708,138.306580 
z"/>
<path fill="#000000" opacity="1.000000" stroke="none" 
	d="
M113.994987,327.009186 
	C109.729774,330.421265 101.907829,330.217072 98.583519,326.614960 
	C95.548988,323.326843 96.044647,317.461304 99.647530,314.024048 
	C101.953072,311.824493 109.280472,310.673462 111.878418,312.157806 
	C113.581947,313.131165 114.163567,314.440460 112.911545,316.088013 
	C111.817024,316.523376 111.189400,315.922333 110.581375,315.380280 
	C107.750702,312.856628 104.892815,312.734283 102.251381,315.526093 
	C98.992775,318.970184 100.667130,322.463501 102.910744,325.415009 
	C105.034714,328.209076 107.945602,328.439087 110.671265,325.868378 
	C112.035728,324.581451 113.168533,324.122742 113.959930,326.691223 
	C114.010704,326.988525 113.999474,327.001221 113.994987,327.009186 
z"/>
<path fill="#000000" opacity="1.000000" stroke="none" 
	d="
M249.315826,318.601562 
	C252.748642,315.271729 257.057465,315.698730 260.008667,317.456421 
	C264.139343,319.916595 261.981598,324.904083 262.416656,328.790039 
	C260.790375,329.741547 259.401062,329.621643 257.998444,328.984741 
	C257.258270,327.576263 258.169403,326.373749 258.363190,325.112640 
	C258.674957,323.083710 258.795593,321.088135 257.008362,319.643250 
	C256.340912,319.103638 255.412003,319.184113 254.682190,319.711334 
	C252.861389,321.026672 253.464767,322.991669 253.468338,324.748688 
	C253.470963,326.044861 253.719803,327.340515 253.894272,328.965240 
	C251.185226,329.527588 248.904068,330.161438 249.366638,325.889984 
	C249.612976,323.615265 249.281830,321.278015 249.315826,318.601562 
z"/>
<path fill="#000000" opacity="1.000000" stroke="none" 
	d="
M393.874207,328.985291 
	C392.463074,329.213379 391.320312,329.246765 390.178284,329.229736 
	C383.248077,329.126587 380.315948,325.466492 381.752747,318.718994 
	C382.041473,317.363068 383.031586,316.833282 384.281738,316.800415 
	C385.489716,316.768616 386.066528,317.565704 386.135254,318.681366 
	C386.236908,320.332184 386.254486,321.988251 386.304749,323.642212 
	C386.346130,325.003662 386.371429,326.543610 388.207214,326.511932 
	C389.779480,326.484772 390.395569,325.172089 390.543732,323.759705 
	C390.646667,322.778503 390.714264,321.749084 390.531433,320.792084 
	C390.191681,319.013733 390.008484,317.196411 392.384644,317.142120 
	C394.913788,317.084320 394.395996,319.413239 394.444733,320.876373 
	C394.532104,323.500397 394.263000,326.136353 393.874207,328.985291 
z"/>
<path fill="#000000" opacity="1.000000" stroke="none" 
	d="
M347.108826,124.207077 
	C343.893890,126.765053 340.929688,128.841721 337.375702,125.530273 
	C337.546204,125.014839 337.678101,124.438705 337.742676,124.446159 
	C343.916534,125.158562 344.957642,120.306740 346.729156,116.222870 
	C347.971191,113.359642 349.274109,110.522812 350.541473,107.692917 
	C352.308105,107.191505 353.341125,108.280853 354.925720,109.582680 
	C351.744354,114.070740 351.182953,119.785538 347.108826,124.207077 
z"/>
<path fill="#000000" opacity="1.000000" stroke="none" 
	d="
M383.986450,144.014313 
	C386.042419,143.562134 386.377380,144.856674 386.818268,146.479416 
	C387.289459,148.213821 388.071960,150.087372 390.864960,149.021591 
	C391.601135,146.394043 389.054016,144.995346 388.383270,142.918777 
	C387.726990,140.887024 388.010559,139.074081 389.925690,138.218674 
	C392.579285,137.033432 395.160126,137.687546 397.253326,139.750061 
	C398.701080,141.176590 399.299988,142.681412 397.444183,144.162918 
	C395.161621,143.676468 396.164642,140.322906 393.079407,140.578842 
	C392.727661,144.305191 399.252167,150.372025 390.752655,151.593704 
	C386.909698,152.146057 383.918274,149.341400 383.996399,144.359863 
	C384.031250,143.969818 384.001251,143.999359 383.986450,144.014313 
z"/>
<path fill="#000000" opacity="1.000000" stroke="none" 
	d="
M119.109528,133.292847 
	C111.520821,138.580856 120.011292,141.211929 120.654739,145.440430 
	C120.336662,146.974960 118.831871,147.418610 117.214508,147.958664 
	C114.896545,144.727386 112.708176,141.675629 110.518364,138.624908 
	C109.987183,137.884888 109.826439,137.031921 110.396523,136.336227 
	C112.392021,133.901123 114.843475,131.965515 117.839600,131.013962 
	C118.989845,130.648636 119.428741,131.847702 119.109528,133.292847 
z"/>
<path fill="#000000" opacity="1.000000" stroke="none" 
	d="
M266.102020,314.203796 
	C268.639069,315.275726 268.561310,317.252869 268.344696,319.293152 
	C268.027039,322.285309 267.777893,325.268097 270.587677,327.409973 
	C266.305450,330.139526 263.944427,329.422821 264.153229,325.139008 
	C264.327332,321.566101 260.875549,317.196869 266.102020,314.203796 
z"/>
<path fill="#000000" opacity="1.000000" stroke="none" 
	d="
M395.891357,319.962555 
	C399.726074,315.920593 402.518738,315.749451 404.809937,319.114990 
	C402.927063,320.398254 401.222015,317.145111 399.134430,319.155121 
	C400.321167,322.260254 407.182892,321.542267 405.047089,326.918793 
	C404.076294,329.362488 401.561829,329.125336 399.448608,329.169037 
	C397.507141,329.209229 395.932343,328.582733 395.965057,325.940430 
	C398.177643,325.619019 399.610657,328.865479 402.058380,326.897827 
	C401.537506,323.244812 395.659668,324.530762 395.891357,319.962555 
z"/>
<path fill="#000000" opacity="1.000000" stroke="none" 
	d="
M268.907959,272.896973 
	C270.863434,273.706024 272.818909,274.515045 274.840027,275.351288 
	C270.538483,278.484955 257.993378,273.885681 254.716202,267.676300 
	C258.177460,268.164856 260.350403,271.136810 264.229187,271.142090 
	C266.247528,271.779388 267.577759,272.338196 268.907959,272.896973 
z"/>
<path fill="#000000" opacity="1.000000" stroke="none" 
	d="
M206.527802,282.426819 
	C202.728088,282.267578 199.314362,282.130005 196.546829,277.804596 
	C201.584930,278.942688 205.638382,279.858368 209.872574,280.814850 
	C209.253128,282.786469 207.925583,282.252625 206.527802,282.426819 
z"/>
<path fill="#000000" opacity="1.000000" stroke="none" 
	d="
M269.256653,272.942261 
	C267.577759,272.338196 266.247528,271.779388 264.621887,271.162842 
	C263.574890,268.339569 265.277740,268.221008 267.065216,268.850250 
	C269.182465,269.595612 271.440460,270.304474 272.806091,272.354675 
	C271.870880,273.777100 270.662903,272.943085 269.256653,272.942261 
z"/>
</svg>